<?xml version="1.0" encoding="UTF-8" standalone="no"?>
<!DOCTYPE svg PUBLIC "-//W3C//DTD SVG 1.1//EN"
 "http://www.w3.org/Graphics/SVG/1.1/DTD/svg11.dtd">
<!-- Generated by graphviz version 2.38.0 (20140413.2041)
 -->
<!-- Title: %3 Pages: 1 -->
<svg width="1604pt" height="1228pt"
 viewBox="0.00 0.00 1604.35 1228.41" xmlns="http://www.w3.org/2000/svg" xmlns:xlink="http://www.w3.org/1999/xlink">
<g id="graph0" class="graph" transform="scale(1 1) rotate(0) translate(4 1224.41)">
<title>%3</title>
<polygon fill="white" stroke="none" points="-4,4 -4,-1224.41 1600.35,-1224.41 1600.35,4 -4,4"/>
<!-- github.com/go&#45;modules&#45;by&#45;example&#45;staging/listmodwhygraph -->
<g id="node1" class="node"><title>github.com/go&#45;modules&#45;by&#45;example&#45;staging/listmodwhygraph</title>
<polygon fill="#e94762" stroke="none" points="1079.34,-543.274 639.337,-543.274 639.337,-507.274 1079.34,-507.274 1079.34,-543.274"/>
<text text-anchor="middle" x="859.337" y="-521.574" font-family="Helvetica,sans-Serif" font-size="14.00">github.com/go&#45;modules&#45;by&#45;example&#45;staging/listmodwhygraph</text>
</g>
<!-- github.com/go&#45;modules&#45;by&#45;example&#45;staging/incomplete -->
<g id="node2" class="node"><title>github.com/go&#45;modules&#45;by&#45;example&#45;staging/incomplete</title>
<text text-anchor="middle" x="1398.35" y="-521.574" font-family="Helvetica,sans-Serif" font-size="14.00">github.com/go&#45;modules&#45;by&#45;example&#45;staging/incomplete</text>
</g>
<!-- github.com/go&#45;modules&#45;by&#45;example&#45;staging/listmodwhygraph&#45;&gt;github.com/go&#45;modules&#45;by&#45;example&#45;staging/incomplete -->
<g id="edge1" class="edge"><title>github.com/go&#45;modules&#45;by&#45;example&#45;staging/listmodwhygraph&#45;&gt;github.com/go&#45;modules&#45;by&#45;example&#45;staging/incomplete</title>
<path fill="none" stroke="black" d="M1079.35,-525.274C1115.94,-525.274 1153.78,-525.274 1190.07,-525.274"/>
<polygon fill="black" stroke="black" points="1190.26,-528.774 1200.26,-525.274 1190.26,-521.774 1190.26,-528.774"/>
</g>
<!-- github.com/kr/pretty -->
<g id="node3" class="node"><title>github.com/kr/pretty</title>
<text text-anchor="middle" x="893.573" y="-924.853" font-family="Helvetica,sans-Serif" font-size="14.00">github.com/kr/pretty</text>
</g>
<!-- github.com/go&#45;modules&#45;by&#45;example&#45;staging/listmodwhygraph&#45;&gt;github.com/kr/pretty -->
<g id="edge2" class="edge"><title>github.com/go&#45;modules&#45;by&#45;example&#45;staging/listmodwhygraph&#45;&gt;github.com/kr/pretty</title>
<path fill="none" stroke="black" d="M860.874,-543.385C866.305,-607.353 884.61,-822.978 891.191,-900.5"/>
<polygon fill="black" stroke="black" points="887.706,-900.823 892.04,-910.491 894.681,-900.231 887.706,-900.823"/>
</g>
<!-- github.com/sirupsen/logrus -->
<g id="node4" class="node"><title>github.com/sirupsen/logrus</title>
<text text-anchor="middle" x="338.466" y="-382.907" font-family="Helvetica,sans-Serif" font-size="14.00">github.com/sirupsen/logrus</text>
</g>
<!-- github.com/go&#45;modules&#45;by&#45;example&#45;staging/listmodwhygraph&#45;&gt;github.com/sirupsen/logrus -->
<g id="edge3" class="edge"><title>github.com/go&#45;modules&#45;by&#45;example&#45;staging/listmodwhygraph&#45;&gt;github.com/sirupsen/logrus</title>
<path fill="none" stroke="black" d="M791.509,-507.217C694.855,-481.485 517.956,-434.391 416.157,-407.29"/>
<polygon fill="black" stroke="black" points="416.806,-403.841 406.243,-404.65 415.006,-410.605 416.806,-403.841"/>
</g>
<!-- golang.org/x/tools -->
<g id="node5" class="node"><title>golang.org/x/tools</title>
<text text-anchor="middle" x="1041.57" y="-14.3" font-family="Helvetica,sans-Serif" font-size="14.00">golang.org/x/tools</text>
</g>
<!-- github.com/go&#45;modules&#45;by&#45;example&#45;staging/listmodwhygraph&#45;&gt;golang.org/x/tools -->
<g id="edge4" class="edge"><title>github.com/go&#45;modules&#45;by&#45;example&#45;staging/listmodwhygraph&#45;&gt;golang.org/x/tools</title>
<path fill="none" stroke="black" d="M865.822,-507.22C893.109,-431.262 998.694,-137.345 1031.67,-45.551"/>
<polygon fill="black" stroke="black" points="1034.98,-46.6965 1035.06,-36.102 1028.39,-44.3298 1034.98,-46.6965"/>
</g>
<!-- github.com/kr/text -->
<g id="node6" class="node"><title>github.com/kr/text</title>
<text text-anchor="middle" x="905.463" y="-1064.91" font-family="Helvetica,sans-Serif" font-size="14.00">github.com/kr/text</text>
</g>
<!-- github.com/kr/pretty&#45;&gt;github.com/kr/text -->
<g id="edge5" class="edge"><title>github.com/kr/pretty&#45;&gt;github.com/kr/text</title>
<path fill="none" stroke="black" d="M895.103,-946.576C897.116,-970.291 900.677,-1012.23 903.054,-1040.23"/>
<polygon fill="black" stroke="black" points="899.567,-1040.54 903.901,-1050.21 906.542,-1039.95 899.567,-1040.54"/>
</g>
<!-- github.com/davecgh/go&#45;spew -->
<g id="node8" class="node"><title>github.com/davecgh/go&#45;spew</title>
<text text-anchor="middle" x="522.803" y="-524.057" font-family="Helvetica,sans-Serif" font-size="14.00">github.com/davecgh/go&#45;spew</text>
</g>
<!-- github.com/sirupsen/logrus&#45;&gt;github.com/davecgh/go&#45;spew -->
<g id="edge7" class="edge"><title>github.com/sirupsen/logrus&#45;&gt;github.com/davecgh/go&#45;spew</title>
<path fill="none" stroke="black" d="M362.188,-404.771C394.956,-429.862 454.167,-475.201 490.818,-503.265"/>
<polygon fill="black" stroke="black" points="489.105,-506.362 499.173,-509.662 493.361,-500.804 489.105,-506.362"/>
</g>
<!-- github.com/konsorten/go&#45;windows&#45;terminal&#45;sequences -->
<g id="node9" class="node"><title>github.com/konsorten/go&#45;windows&#45;terminal&#45;sequences</title>
<text text-anchor="middle" x="285.821" y="-609.03" font-family="Helvetica,sans-Serif" font-size="14.00">github.com/konsorten/go&#45;windows&#45;terminal&#45;sequences</text>
</g>
<!-- github.com/sirupsen/logrus&#45;&gt;github.com/konsorten/go&#45;windows&#45;terminal&#45;sequences -->
<g id="edge8" class="edge"><title>github.com/sirupsen/logrus&#45;&gt;github.com/konsorten/go&#45;windows&#45;terminal&#45;sequences</title>
<path fill="none" stroke="black" d="M334.247,-404.729C325.083,-444.092 303.304,-537.637 292.35,-584.688"/>
<polygon fill="black" stroke="black" points="288.919,-583.988 290.061,-594.522 295.737,-585.576 288.919,-583.988"/>
</g>
<!-- github.com/pmezard/go&#45;difflib -->
<g id="node10" class="node"><title>github.com/pmezard/go&#45;difflib</title>
<text text-anchor="middle" x="110.5" y="-426.891" font-family="Helvetica,sans-Serif" font-size="14.00">github.com/pmezard/go&#45;difflib</text>
</g>
<!-- github.com/sirupsen/logrus&#45;&gt;github.com/pmezard/go&#45;difflib -->
<g id="edge9" class="edge"><title>github.com/sirupsen/logrus&#45;&gt;github.com/pmezard/go&#45;difflib</title>
<path fill="none" stroke="black" d="M245.086,-404.624C234.836,-406.601 224.356,-408.623 213.993,-410.623"/>
<polygon fill="black" stroke="black" points="213.26,-407.2 204.104,-412.531 214.586,-414.073 213.26,-407.2"/>
</g>
<!-- github.com/stretchr/objx -->
<g id="node11" class="node"><title>github.com/stretchr/objx</title>
<text text-anchor="middle" x="157.708" y="-237.203" font-family="Helvetica,sans-Serif" font-size="14.00">github.com/stretchr/objx</text>
</g>
<!-- github.com/sirupsen/logrus&#45;&gt;github.com/stretchr/objx -->
<g id="edge10" class="edge"><title>github.com/sirupsen/logrus&#45;&gt;github.com/stretchr/objx</title>
<path fill="none" stroke="black" d="M315.939,-368.448C283.784,-342.529 224.626,-294.844 188.463,-265.694"/>
<polygon fill="black" stroke="black" points="190.217,-262.612 180.235,-259.062 185.824,-268.062 190.217,-262.612"/>
</g>
<!-- github.com/stretchr/testify -->
<g id="node12" class="node"><title>github.com/stretchr/testify</title>
<text text-anchor="middle" x="326.464" y="-151.047" font-family="Helvetica,sans-Serif" font-size="14.00">github.com/stretchr/testify</text>
</g>
<!-- github.com/sirupsen/logrus&#45;&gt;github.com/stretchr/testify -->
<g id="edge11" class="edge"><title>github.com/sirupsen/logrus&#45;&gt;github.com/stretchr/testify</title>
<path fill="none" stroke="black" d="M337.525,-368.413C335.439,-328.118 330.417,-231.111 327.922,-182.909"/>
<polygon fill="black" stroke="black" points="331.414,-182.662 327.402,-172.856 324.423,-183.024 331.414,-182.662"/>
</g>
<!-- golang.org/x/crypto -->
<g id="node13" class="node"><title>golang.org/x/crypto</title>
<text text-anchor="middle" x="495.296" y="-211.712" font-family="Helvetica,sans-Serif" font-size="14.00">golang.org/x/crypto</text>
</g>
<!-- github.com/sirupsen/logrus&#45;&gt;golang.org/x/crypto -->
<g id="edge12" class="edge"><title>github.com/sirupsen/logrus&#45;&gt;golang.org/x/crypto</title>
<path fill="none" stroke="black" d="M355.25,-368.286C383.313,-337.653 439.825,-275.964 471.818,-241.041"/>
<polygon fill="black" stroke="black" points="474.459,-243.339 478.633,-233.601 469.297,-238.611 474.459,-243.339"/>
</g>
<!-- golang.org/x/sys -->
<g id="node14" class="node"><title>golang.org/x/sys</title>
<text text-anchor="middle" x="568.583" y="-352.094" font-family="Helvetica,sans-Serif" font-size="14.00">golang.org/x/sys</text>
</g>
<!-- github.com/sirupsen/logrus&#45;&gt;golang.org/x/sys -->
<g id="edge13" class="edge"><title>github.com/sirupsen/logrus&#45;&gt;golang.org/x/sys</title>
<path fill="none" stroke="black" d="M439.734,-373.047C458.079,-370.591 476.899,-368.071 494.291,-365.742"/>
<polygon fill="black" stroke="black" points="494.906,-369.191 504.353,-364.394 493.977,-362.253 494.906,-369.191"/>
</g>
<!-- github.com/kr/pty -->
<g id="node7" class="node"><title>github.com/kr/pty</title>
<text text-anchor="middle" x="916.822" y="-1198.71" font-family="Helvetica,sans-Serif" font-size="14.00">github.com/kr/pty</text>
</g>
<!-- github.com/kr/text&#45;&gt;github.com/kr/pty -->
<g id="edge6" class="edge"><title>github.com/kr/text&#45;&gt;github.com/kr/pty</title>
<path fill="none" stroke="black" d="M906.995,-1086.65C908.9,-1109.1 912.175,-1147.67 914.417,-1174.08"/>
<polygon fill="black" stroke="black" points="910.944,-1174.55 915.278,-1184.22 917.919,-1173.96 910.944,-1174.55"/>
</g>
</g>
</svg>
